<svg width="130" height="115" viewBox="0 0 130 115" fill="none" xmlns="http://www.w3.org/2000/svg">
<g clip-path="url(#clip0_5_4255)">
<path d="M14.4176 63.3715L9.96035 58.5085C10.9646 57.4578 11.5166 56.0838 11.5166 54.625C11.5166 53.1227 10.9316 51.7097 9.86885 50.6478C8.8061 49.5857 7.39385 49 5.8916 49C4.38935 49 2.97635 49.585 1.91435 50.6478C0.852352 51.7105 0.266602 53.1227 0.266602 54.625C0.266602 56.1273 0.851602 57.5403 1.91435 58.6023C2.9771 59.6643 4.38935 60.25 5.8916 60.25C7.1861 60.25 8.4131 59.8158 9.4076 59.0162L13.8649 63.8785C13.9391 63.9595 14.0396 64 14.1416 64C14.2324 64 14.3231 63.9677 14.3951 63.9017C14.5481 63.7615 14.5579 63.5245 14.4184 63.3722L14.4176 63.3715ZM1.01585 54.625C1.01585 51.937 3.20285 49.75 5.89085 49.75C8.57885 49.75 10.7659 51.937 10.7659 54.625C10.7659 57.313 8.57885 59.5 5.89085 59.5C3.20285 59.5 1.01585 57.313 1.01585 54.625Z" fill="black"/>
</g>
<path d="M28.1731 53.1275C28.1181 53.2375 28.0531 53.315 27.9781 53.36C27.9081 53.405 27.8231 53.4275 27.7231 53.4275C27.6231 53.4275 27.5106 53.39 27.3856 53.315C27.2606 53.235 27.1131 53.1475 26.9431 53.0525C26.7731 52.9575 26.5731 52.8725 26.3431 52.7975C26.1181 52.7175 25.8506 52.6775 25.5406 52.6775C25.2606 52.6775 25.0156 52.7125 24.8056 52.7825C24.6006 52.8475 24.4256 52.94 24.2806 53.06C24.1406 53.18 24.0356 53.325 23.9656 53.495C23.8956 53.66 23.8606 53.8425 23.8606 54.0425C23.8606 54.2975 23.9306 54.51 24.0706 54.68C24.2156 54.85 24.4056 54.995 24.6406 55.115C24.8756 55.235 25.1431 55.3425 25.4431 55.4375C25.7431 55.5325 26.0481 55.635 26.3581 55.745C26.6731 55.85 26.9806 55.975 27.2806 56.12C27.5806 56.26 27.8481 56.44 28.0831 56.66C28.3181 56.875 28.5056 57.14 28.6456 57.455C28.7906 57.77 28.8631 58.1525 28.8631 58.6025C28.8631 59.0925 28.7781 59.5525 28.6081 59.9825C28.4431 60.4075 28.1981 60.78 27.8731 61.1C27.5531 61.415 27.1606 61.665 26.6956 61.85C26.2306 62.03 25.6981 62.12 25.0981 62.12C24.7531 62.12 24.4131 62.085 24.0781 62.015C23.7431 61.95 23.4206 61.855 23.1106 61.73C22.8056 61.605 22.5181 61.455 22.2481 61.28C21.9831 61.105 21.7456 60.91 21.5356 60.695L22.1206 59.7275C22.1756 59.6575 22.2406 59.6 22.3156 59.555C22.3956 59.505 22.4831 59.48 22.5781 59.48C22.7031 59.48 22.8381 59.5325 22.9831 59.6375C23.1281 59.7375 23.2981 59.85 23.4931 59.975C23.6931 60.1 23.9256 60.215 24.1906 60.32C24.4606 60.42 24.7831 60.47 25.1581 60.47C25.7331 60.47 26.1781 60.335 26.4931 60.065C26.8081 59.79 26.9656 59.3975 26.9656 58.8875C26.9656 58.6025 26.8931 58.37 26.7481 58.19C26.6081 58.01 26.4206 57.86 26.1856 57.74C25.9506 57.615 25.6831 57.51 25.3831 57.425C25.0831 57.34 24.7781 57.2475 24.4681 57.1475C24.1581 57.0475 23.8531 56.9275 23.5531 56.7875C23.2531 56.6475 22.9856 56.465 22.7506 56.24C22.5156 56.015 22.3256 55.735 22.1806 55.4C22.0406 55.06 21.9706 54.6425 21.9706 54.1475C21.9706 53.7525 22.0481 53.3675 22.2031 52.9925C22.3631 52.6175 22.5931 52.285 22.8931 51.995C23.1981 51.705 23.5706 51.4725 24.0106 51.2975C24.4506 51.1225 24.9531 51.035 25.5181 51.035C26.1581 51.035 26.7481 51.135 27.2881 51.335C27.8281 51.535 28.2881 51.815 28.6681 52.175L28.1731 53.1275ZM33.4776 54.185C33.9626 54.185 34.4076 54.2625 34.8126 54.4175C35.2226 54.5725 35.5751 54.8 35.8701 55.1C36.1651 55.395 36.3951 55.76 36.5601 56.195C36.7251 56.625 36.8076 57.1175 36.8076 57.6725C36.8076 57.8125 36.8001 57.93 36.7851 58.025C36.7751 58.115 36.7526 58.1875 36.7176 58.2425C36.6876 58.2925 36.6451 58.33 36.5901 58.355C36.5351 58.375 36.4651 58.385 36.3801 58.385H31.6251C31.6801 59.175 31.8926 59.755 32.2626 60.125C32.6326 60.495 33.1226 60.68 33.7326 60.68C34.0326 60.68 34.2901 60.645 34.5051 60.575C34.7251 60.505 34.9151 60.4275 35.0751 60.3425C35.2401 60.2575 35.3826 60.18 35.5026 60.11C35.6276 60.04 35.7476 60.005 35.8626 60.005C35.9376 60.005 36.0026 60.02 36.0576 60.05C36.1126 60.08 36.1601 60.1225 36.2001 60.1775L36.7401 60.8525C36.5351 61.0925 36.3051 61.295 36.0501 61.46C35.7951 61.62 35.5276 61.75 35.2476 61.85C34.9726 61.945 34.6901 62.0125 34.4001 62.0525C34.1151 62.0925 33.8376 62.1125 33.5676 62.1125C33.0326 62.1125 32.5351 62.025 32.0751 61.85C31.6151 61.67 31.2151 61.4075 30.8751 61.0625C30.5351 60.7125 30.2676 60.2825 30.0726 59.7725C29.8776 59.2575 29.7801 58.6625 29.7801 57.9875C29.7801 57.4625 29.8651 56.97 30.0351 56.51C30.2051 56.045 30.4476 55.6425 30.7626 55.3025C31.0826 54.9575 31.4701 54.685 31.9251 54.485C32.3851 54.285 32.9026 54.185 33.4776 54.185ZM33.5151 55.5125C32.9751 55.5125 32.5526 55.665 32.2476 55.97C31.9426 56.275 31.7476 56.7075 31.6626 57.2675H35.1426C35.1426 57.0275 35.1101 56.8025 35.0451 56.5925C34.9801 56.3775 34.8801 56.19 34.7451 56.03C34.6101 55.87 34.4401 55.745 34.2351 55.655C34.0301 55.56 33.7901 55.5125 33.5151 55.5125ZM44.3403 62H43.5078C43.3328 62 43.1953 61.975 43.0953 61.925C42.9953 61.87 42.9203 61.7625 42.8703 61.6025L42.7053 61.055C42.5103 61.23 42.3178 61.385 42.1278 61.52C41.9428 61.65 41.7503 61.76 41.5503 61.85C41.3503 61.94 41.1378 62.0075 40.9128 62.0525C40.6878 62.0975 40.4378 62.12 40.1628 62.12C39.8378 62.12 39.5378 62.0775 39.2628 61.9925C38.9878 61.9025 38.7503 61.77 38.5503 61.595C38.3553 61.42 38.2028 61.2025 38.0928 60.9425C37.9828 60.6825 37.9278 60.38 37.9278 60.035C37.9278 59.745 38.0028 59.46 38.1528 59.18C38.3078 58.895 38.5628 58.64 38.9178 58.415C39.2728 58.185 39.7453 57.995 40.3353 57.845C40.9253 57.695 41.6578 57.61 42.5328 57.59V57.14C42.5328 56.625 42.4228 56.245 42.2028 56C41.9878 55.75 41.6728 55.625 41.2578 55.625C40.9578 55.625 40.7078 55.66 40.5078 55.73C40.3078 55.8 40.1328 55.88 39.9828 55.97C39.8378 56.055 39.7028 56.1325 39.5778 56.2025C39.4528 56.2725 39.3153 56.3075 39.1653 56.3075C39.0403 56.3075 38.9328 56.275 38.8428 56.21C38.7528 56.145 38.6803 56.065 38.6253 55.97L38.2878 55.3775C39.1728 54.5675 40.2403 54.1625 41.4903 54.1625C41.9403 54.1625 42.3403 54.2375 42.6903 54.3875C43.0453 54.5325 43.3453 54.7375 43.5903 55.0025C43.8353 55.2625 44.0203 55.575 44.1453 55.94C44.2753 56.305 44.3403 56.705 44.3403 57.14V62ZM40.7403 60.845C40.9303 60.845 41.1053 60.8275 41.2653 60.7925C41.4253 60.7575 41.5753 60.705 41.7153 60.635C41.8603 60.565 41.9978 60.48 42.1278 60.38C42.2628 60.275 42.3978 60.1525 42.5328 60.0125V58.715C41.9928 58.74 41.5403 58.7875 41.1753 58.8575C40.8153 58.9225 40.5253 59.0075 40.3053 59.1125C40.0853 59.2175 39.9278 59.34 39.8328 59.48C39.7428 59.62 39.6978 59.7725 39.6978 59.9375C39.6978 60.2625 39.7928 60.495 39.9828 60.635C40.1778 60.775 40.4303 60.845 40.7403 60.845ZM46.1619 62V54.305H47.2494C47.4394 54.305 47.5719 54.34 47.6469 54.41C47.7219 54.48 47.7719 54.6 47.7969 54.77L47.9094 55.7C48.1844 55.225 48.5069 54.85 48.8769 54.575C49.2469 54.3 49.6619 54.1625 50.1219 54.1625C50.5019 54.1625 50.8169 54.25 51.0669 54.425L50.8269 55.8125C50.8119 55.9025 50.7794 55.9675 50.7294 56.0075C50.6794 56.0425 50.6119 56.06 50.5269 56.06C50.4519 56.06 50.3494 56.0425 50.2194 56.0075C50.0894 55.9725 49.9169 55.955 49.7019 55.955C49.3169 55.955 48.9869 56.0625 48.7119 56.2775C48.4369 56.4875 48.2044 56.7975 48.0144 57.2075V62H46.1619ZM57.6924 55.9325C57.6374 56.0025 57.5824 56.0575 57.5274 56.0975C57.4774 56.1375 57.4024 56.1575 57.3024 56.1575C57.2074 56.1575 57.1149 56.13 57.0249 56.075C56.9349 56.015 56.8274 55.95 56.7024 55.88C56.5774 55.805 56.4274 55.74 56.2524 55.685C56.0824 55.625 55.8699 55.595 55.6149 55.595C55.2899 55.595 55.0049 55.655 54.7599 55.775C54.5149 55.89 54.3099 56.0575 54.1449 56.2775C53.9849 56.4975 53.8649 56.765 53.7849 57.08C53.7049 57.39 53.6649 57.7425 53.6649 58.1375C53.6649 58.5475 53.7074 58.9125 53.7924 59.2325C53.8824 59.5525 54.0099 59.8225 54.1749 60.0425C54.3399 60.2575 54.5399 60.4225 54.7749 60.5375C55.0099 60.6475 55.2749 60.7025 55.5699 60.7025C55.8649 60.7025 56.1024 60.6675 56.2824 60.5975C56.4674 60.5225 56.6224 60.4425 56.7474 60.3575C56.8724 60.2675 56.9799 60.1875 57.0699 60.1175C57.1649 60.0425 57.2699 60.005 57.3849 60.005C57.5349 60.005 57.6474 60.0625 57.7224 60.1775L58.2549 60.8525C58.0499 61.0925 57.8274 61.295 57.5874 61.46C57.3474 61.62 57.0974 61.75 56.8374 61.85C56.5824 61.945 56.3174 62.0125 56.0424 62.0525C55.7674 62.0925 55.4949 62.1125 55.2249 62.1125C54.7499 62.1125 54.3024 62.025 53.8824 61.85C53.4624 61.67 53.0949 61.41 52.7799 61.07C52.4699 60.73 52.2224 60.315 52.0374 59.825C51.8574 59.33 51.7674 58.7675 51.7674 58.1375C51.7674 57.5725 51.8474 57.05 52.0074 56.57C52.1724 56.085 52.4124 55.6675 52.7274 55.3175C53.0424 54.9625 53.4324 54.685 53.8974 54.485C54.3624 54.285 54.8974 54.185 55.5024 54.185C56.0774 54.185 56.5799 54.2775 57.0099 54.4625C57.4449 54.6475 57.8349 54.9125 58.1799 55.2575L57.6924 55.9325ZM59.4334 62V50.855H61.2859V55.1375C61.5859 54.8525 61.9159 54.6225 62.2759 54.4475C62.6359 54.2725 63.0584 54.185 63.5434 54.185C63.9634 54.185 64.3359 54.2575 64.6609 54.4025C64.9859 54.5425 65.2559 54.7425 65.4709 55.0025C65.6909 55.2575 65.8559 55.565 65.9659 55.925C66.0809 56.28 66.1384 56.6725 66.1384 57.1025V62H64.2859V57.1025C64.2859 56.6325 64.1759 56.27 63.9559 56.015C63.7409 55.755 63.4159 55.625 62.9809 55.625C62.6609 55.625 62.3609 55.6975 62.0809 55.8425C61.8009 55.9875 61.5359 56.185 61.2859 56.435V62H59.4334Z" fill="black"/>
<rect x="105" y="46.4688" width="5" height="5" rx="2.5" fill="black"/>
<rect x="115" y="46.4688" width="5" height="5" rx="2.5" fill="black"/>
<rect x="125" y="46.4688" width="5" height="5" rx="2.5" fill="black"/>
<rect x="105" y="56.4688" width="5" height="5" rx="2.5" fill="black"/>
<rect x="115" y="56.4688" width="5" height="5" rx="2.5" fill="black"/>
<rect x="125" y="56.4688" width="5" height="5" rx="2.5" fill="black"/>
<rect x="105" y="66.4688" width="5" height="5" rx="2.5" fill="black"/>
<rect x="115" y="66.4688" width="5" height="5" rx="2.5" fill="black"/>
<rect x="125" y="66.4688" width="5" height="5" rx="2.5" fill="black"/>
<defs>
<clipPath id="clip0_5_4255">
<rect width="15" height="21" fill="white" transform="translate(0.265625 46)"/>
</clipPath>
</defs>
</svg>
