<svg width="24" height="31" viewBox="0 0 24 31" fill="none" xmlns="http://www.w3.org/2000/svg">
<g id="Frame" clip-path="url(#clip0_5_4206)">
<g id="Group">
<path id="Vector" d="M9.62866 9.06412C9.97885 9.21976 10.154 9.49214 10.154 9.88124V21.0875C10.154 21.4766 9.97885 21.7489 9.62866 21.9046C9.47302 21.9824 9.33683 22.0213 9.2201 22.0213C9.06446 22.0213 8.8699 21.9435 8.63644 21.7879L4.84267 18.7528H1.74928C1.12671 18.7528 0.81543 18.4416 0.81543 17.819V13.1497C0.81543 12.5272 1.12671 12.2159 1.74928 12.2159H4.84267L8.63644 9.12249C8.79208 9.00576 8.98664 8.94739 9.2201 8.94739C9.33683 8.94739 9.47302 8.9863 9.62866 9.06412ZM23.1695 15.4844C23.1695 19.0252 21.9049 22.0602 19.3757 24.5894C19.2201 24.7451 19.045 24.8229 18.8504 24.8229C18.6948 24.8229 18.5392 24.7451 18.3835 24.5894C18.0333 24.2781 18.0333 23.9474 18.3835 23.5972C20.6403 21.4182 21.7687 18.7139 21.7687 15.4844C21.7687 12.2548 20.6403 9.5505 18.3835 7.37152C18.0333 7.02132 18.0333 6.69058 18.3835 6.3793C18.7337 6.06801 19.0645 6.06801 19.3757 6.3793C21.9049 8.90848 23.1695 11.9435 23.1695 15.4844ZM16.8076 8.77229C18.5975 10.64 19.4925 12.8774 19.4925 15.4844C19.4925 18.0914 18.5975 20.3287 16.8076 22.1964C16.652 22.3521 16.4769 22.4299 16.2824 22.4299C16.1267 22.4299 15.9711 22.3521 15.8154 22.1964C15.4652 21.8462 15.4458 21.5155 15.7571 21.2042C17.3135 19.6478 18.0917 17.7412 18.0917 15.4844C18.0917 13.2275 17.3135 11.3209 15.7571 9.76451C15.4458 9.45323 15.4652 9.12249 15.8154 8.77229C16.1656 8.4221 16.4964 8.4221 16.8076 8.77229ZM13.831 11.1653C14.9983 12.4104 15.582 13.8501 15.582 15.4844C15.582 17.1186 14.9983 18.5583 13.831 19.8034C13.7143 19.9202 13.5392 19.9785 13.3057 19.9785C13.1111 19.9785 12.9555 19.9202 12.8388 19.8034C12.5275 19.4921 12.5275 19.1614 12.8388 18.8112C13.7337 17.9163 14.1812 16.8073 14.1812 15.4844C14.1812 14.1614 13.7337 13.0524 12.8388 12.1575C12.5275 11.8073 12.5275 11.4766 12.8388 11.1653C13.1501 10.854 13.4808 10.854 13.831 11.1653Z" fill="black"/>
</g>
</g>
<defs>
<clipPath id="clip0_5_4206">
<rect width="22.4531" height="30" fill="white" transform="matrix(1 0 0 -1 0.765625 30.4844)"/>
</clipPath>
</defs>
</svg>
