<svg width="21" height="21" viewBox="0 0 21 21" fill="none" xmlns="http://www.w3.org/2000/svg">
<g clip-path="url(#clip0_5_4065)">
<path d="M10.2813 0.656174C15.7932 0.656174 20.2618 5.12362 20.2618 10.6367C20.2618 16.1486 15.7932 20.6172 10.2813 20.6172C4.7694 20.6172 0.300781 16.1486 0.300781 10.6367C0.300781 5.12479 4.7694 0.656174 10.2813 0.656174ZM12.3534 12.8987L7.75731 10.678C7.75887 10.6503 7.76121 10.6219 7.76121 10.5942L12.3522 8.37625C12.6618 8.60939 13.0446 8.74896 13.4614 8.74896C14.4793 8.74896 15.3051 7.9244 15.3051 6.9053C15.3051 5.8858 14.4793 5.06124 13.4614 5.06124C12.4446 5.06124 11.6185 5.88736 11.6185 6.9053V6.90647L7.06764 9.10452C6.75185 8.85384 6.3538 8.70296 5.91988 8.70296C4.90195 8.70296 4.07583 9.52869 4.07583 10.547C4.07583 11.5649 4.90195 12.3907 5.91988 12.3907C6.28792 12.3907 6.62983 12.2811 6.91793 12.0952L11.6201 14.3681V14.3692C11.6201 15.3887 12.4446 16.2133 13.4626 16.2133C14.4805 16.2133 15.3066 15.3876 15.3066 14.3692C15.3066 13.3501 14.4805 12.5256 13.4626 12.5256C13.0458 12.5256 12.6618 12.6651 12.3534 12.8987Z" fill="#8E8B8C"/>
</g>
<defs>
<clipPath id="clip0_5_4065">
<rect width="20" height="20" fill="white" transform="matrix(1 0 0 -1 0.28125 20.6562)"/>
</clipPath>
</defs>
</svg>
