<svg width="46" height="46" viewBox="0 0 46 46" fill="none" xmlns="http://www.w3.org/2000/svg">
<rect x="0.96875" y="0.21875" width="45" height="45" rx="10" fill="white"/>
<g clip-path="url(#clip0_5_4050)">
<path d="M17.6479 16.7772C17.6479 16.7772 18.0473 16.367 18.8463 15.5467C19.6453 14.7263 21.1861 14.3161 23.4689 14.3161C25.7516 14.3161 27.692 15.1365 29.2899 16.7772C30.8878 18.418 31.6868 20.4082 31.6868 22.748V29.2967C31.6868 30.0671 31.4157 30.7305 30.8735 31.287C30.3314 31.8434 29.6894 32.1216 28.9475 32.1216H26.2082V24.5885H29.8463V22.748C29.8463 20.9218 29.2257 19.3739 27.9844 18.1041C26.7432 16.8343 25.238 16.1994 23.4689 16.1994C21.6997 16.1994 20.1946 16.8343 18.9533 18.1041C17.7121 19.3739 17.0914 20.9218 17.0914 22.748V24.5885H20.7296V32.1216H17.9903C17.2484 32.1216 16.6064 31.8434 16.0642 31.287C15.5221 30.7305 15.251 30.0671 15.251 29.2967V22.748C15.251 20.4082 16.0499 18.418 17.6479 16.7772Z" fill="black"/>
</g>
<defs>
<clipPath id="clip0_5_4050">
<rect width="16.5" height="22" fill="white" transform="matrix(1 0 0 -1 15.2188 34.2188)"/>
</clipPath>
</defs>
</svg>
